# Blender 4.0.1
# www.blender.org
o Cube
v -1.661480 1.035768 0.869461
v -0.557701 1.382911 -0.009941
v -1.731615 0.129577 -0.365799
v -0.671888 0.566116 -1.490220
v 0.248247 0.442457 1.457502
v 0.961278 1.103845 0.822850
v 0.479501 0.061969 -0.289693
v 1.016186 0.584011 -1.019364
vn -0.5787 0.6729 -0.4608
vn -0.0155 -0.9271 -0.3745
vn 0.7645 -0.6014 0.2322
vn 0.1179 0.8642 0.4891
vn -0.0450 -0.8043 0.5926
vn 0.3059 0.9186 -0.2501
vn -0.6391 0.6932 -0.3332
vn 0.1487 -0.8527 -0.5007
vn 0.8024 -0.5676 0.1841
vn -0.1865 0.7774 0.6007
vn -0.3369 -0.9283 0.1576
vn 0.1266 0.8643 -0.4867
vt 0.625000 0.000000
vt 0.375000 0.250000
vt 0.375000 0.000000
vt 0.625000 0.250000
vt 0.375000 0.500000
vt 0.625000 0.750000
vt 0.375000 0.750000
vt 0.625000 1.000000
vt 0.375000 1.000000
vt 0.125000 0.750000
vt 0.125000 0.500000
vt 0.625000 0.500000
vt 0.875000 0.750000
vt 0.875000 0.500000
s 0
f 2/1/1 3/2/1 1/3/1
f 4/4/2 7/5/2 3/2/2
f 7/5/3 6/6/3 5/7/3
f 5/7/4 2/8/4 1/9/4
f 7/5/5 1/10/5 3/11/5
f 8/12/6 2/13/6 6/6/6
f 2/1/7 4/4/7 3/2/7
f 4/4/8 8/12/8 7/5/8
f 7/5/9 8/12/9 6/6/9
f 5/7/10 6/6/10 2/8/10
f 7/5/11 5/7/11 1/10/11
f 8/12/12 4/14/12 2/13/12
