# Blender 4.0.1
# www.blender.org
o Cube
v -0.800025 -0.630738 0.599688
v -1.167036 1.517693 0.723570
v -0.428713 -0.290163 -0.587322
v -0.832809 1.759806 -1.364558
v 2.218556 -2.978902 1.650713
v 0.760253 0.727831 0.899348
v 1.653388 -2.853190 0.357403
v 1.116590 1.085961 -1.185699
v -0.466773 2.920094 -1.194093
vn -0.9328 -0.1402 -0.3320
vn -0.0160 -0.3572 -0.9339
vn 0.9146 -0.0332 -0.4029
vn -0.2636 0.0909 0.9603
vn -0.6390 -0.6629 -0.3901
vn 0.1268 0.1049 -0.9864
vn -0.9494 -0.2560 -0.1817
vn -0.0425 -0.3694 -0.9283
vn 0.8917 0.3955 0.2203
vn -0.1222 -0.0779 0.9894
vn -0.6448 -0.7348 0.2104
vn -0.9425 0.3141 -0.1144
vn 0.2450 0.7378 0.6290
vn 0.7353 0.6358 0.2349
vt 0.625000 0.000000
vt 0.375000 0.250000
vt 0.375000 0.000000
vt 0.625000 0.250000
vt 0.375000 0.500000
vt 0.625000 0.500000
vt 0.375000 0.750000
vt 0.625000 0.750000
vt 0.375000 1.000000
vt 0.125000 0.750000
vt 0.125000 0.500000
vt 0.875000 0.500000
vt 0.750033 0.624967
vt 0.625000 1.000000
vt 0.875000 0.750000
s 0
f 2/1/1 3/2/1 1/3/1
f 4/4/2 7/5/2 3/2/2
f 8/6/3 5/7/3 7/5/3
f 6/8/4 1/9/4 5/7/4
f 7/5/5 1/10/5 3/11/5
f 4/12/6 9/13/6 8/6/6
f 2/1/7 4/4/7 3/2/7
f 4/4/8 8/6/8 7/5/8
f 8/6/9 6/8/9 5/7/9
f 6/8/10 2/14/10 1/9/10
f 7/5/11 5/7/11 1/10/11
f 4/12/12 2/15/12 9/13/12
f 9/13/13 2/15/13 6/8/13
f 8/6/14 9/13/14 6/8/14
