# Blender 4.0.1
# www.blender.org
g InnerTurret
v 0.803094 1.305775 -0.647343
v 0.000000 1.305775 -0.647343
v 0.000000 1.409741 -1.351222
v 0.000000 1.706868 -1.242407
v 0.716341 1.706868 -1.242407
v 0.770802 1.409741 -1.351222
v 0.000000 1.305775 -1.334808
v 0.803094 1.305775 -1.334808
v 0.000000 1.733786 -0.692613
v 0.716341 1.733786 -0.692613
v -0.803094 1.305775 -0.647343
v -0.716341 1.706868 -1.242407
v -0.770802 1.409741 -1.351222
v -0.803094 1.305775 -1.334808
v -0.716341 1.733786 -0.692613
vn 0.9783 0.2069 -0.0116
vn -0.0000 -1.0000 -0.0000
vn -0.0000 0.3439 -0.9390
vn -0.0000 0.1052 0.9945
vn -0.0000 0.9988 -0.0489
vn -0.0000 -0.1559 -0.9878
vn -0.9783 0.2069 -0.0116
vt 0.000000 0.000000
s 0
f 10/1/1 1/1/1 8/1/1 6/1/1 5/1/1
f 8/1/2 1/1/2 2/1/2 7/1/2
f 5/1/3 6/1/3 3/1/3 4/1/3
f 1/1/4 10/1/4 9/1/4 2/1/4
f 5/1/5 4/1/5 9/1/5 10/1/5
f 3/1/6 6/1/6 8/1/6 7/1/6
f 15/1/7 12/1/7 13/1/7 14/1/7 11/1/7
f 14/1/2 7/1/2 2/1/2 11/1/2
f 12/1/3 4/1/3 3/1/3 13/1/3
f 11/1/4 2/1/4 9/1/4 15/1/4
f 12/1/5 15/1/5 9/1/5 4/1/5
f 3/1/6 7/1/6 14/1/6 13/1/6
g InnerTurret.001
v 0.803094 1.305775 -0.647343
v 0.000000 1.305775 -0.647343
v 0.000000 1.221674 -0.321274
v 0.803094 1.221674 -0.321274
v 0.716341 1.753751 -0.313014
v 0.000000 1.753751 -0.313014
v 0.000000 1.733786 -0.692613
v 0.716341 1.733786 -0.692613
v 0.680946 1.748701 0.012354
v 0.767699 1.218226 0.004095
v 0.000000 1.748701 0.012354
v 0.000000 1.220535 0.004095
v 0.680946 1.653591 0.740553
v 0.767699 1.220028 0.732294
v 0.000000 1.653591 0.740553
v 0.000000 1.220028 0.732294
v -0.803094 1.305775 -0.647343
v -0.803094 1.221674 -0.321274
v -0.716341 1.753751 -0.313014
v -0.716341 1.733786 -0.692613
v -0.680946 1.748701 0.012354
v -0.767699 1.218226 0.004095
v -0.680946 1.653591 0.740553
v -0.767699 1.220028 0.732294
vn -0.0000 -0.9683 -0.2498
vn -0.0000 0.9986 -0.0525
vn 0.9838 0.1784 0.0162
vn -0.0000 -0.1052 -0.9945
vn 0.9813 0.1586 0.1088
vn 0.9842 0.1769 0.0113
vn -0.0015 -1.0000 -0.0071
vn -0.0000 0.9999 0.0155
vn -0.0000 -0.0190 0.9998
vn -0.0015 -1.0000 0.0009
vn -0.0000 0.9916 0.1295
vn -0.9838 0.1784 0.0162
vn -0.9813 0.1586 0.1088
vn -0.9842 0.1769 0.0113
vn 0.0015 -1.0000 -0.0071
vn 0.0015 -1.0000 0.0009
vt 0.000000 0.000000
s 0
f 16/2/8 19/2/8 18/2/8 17/2/8
f 22/2/9 21/2/9 20/2/9 23/2/9
f 19/2/10 16/2/10 23/2/10 20/2/10
f 16/2/11 17/2/11 22/2/11 23/2/11
f 19/2/12 20/2/12 24/2/12 25/2/12
f 25/2/13 24/2/13 28/2/13 29/2/13
f 18/2/14 19/2/14 25/2/14 27/2/14
f 20/2/15 21/2/15 26/2/15 24/2/15
f 29/2/16 28/2/16 30/2/16 31/2/16
f 27/2/17 25/2/17 29/2/17 31/2/17
f 24/2/18 26/2/18 30/2/18 28/2/18
f 32/2/8 17/2/8 18/2/8 33/2/8
f 22/2/9 35/2/9 34/2/9 21/2/9
f 33/2/19 34/2/19 35/2/19 32/2/19
f 32/2/11 35/2/11 22/2/11 17/2/11
f 33/2/20 37/2/20 36/2/20 34/2/20
f 37/2/21 39/2/21 38/2/21 36/2/21
f 18/2/22 27/2/22 37/2/22 33/2/22
f 34/2/15 36/2/15 26/2/15 21/2/15
f 39/2/16 31/2/16 30/2/16 38/2/16
f 27/2/23 31/2/23 39/2/23 37/2/23
f 36/2/18 38/2/18 30/2/18 26/2/18
g InnerHull
v 0.711597 0.366463 1.662543
v 0.000000 0.366463 1.662543
v 0.711597 0.889517 2.293486
v 0.000000 0.889517 2.293486
v 0.711597 0.957153 2.032871
v 0.000000 0.957153 2.032871
v 0.711597 0.957153 -2.319635
v 0.000000 0.957153 -2.319635
v 0.711597 0.627441 -2.317747
v 0.000000 0.627441 -2.317747
v 0.711597 0.369216 -1.855988
v 0.000000 0.369216 -1.855988
v -0.711597 0.366463 1.662543
v -0.711597 0.889517 2.293486
v -0.711597 0.957153 2.032871
v -0.711597 0.957153 -2.319635
v -0.711597 0.627441 -2.317747
v -0.711597 0.369216 -1.855988
vn -0.0000 -0.7699 0.6382
vn -0.0000 0.9679 0.2512
vn -0.0000 1.0000 -0.0000
vn -0.0000 -0.0057 -1.0000
vn -0.0000 -0.8728 -0.4881
vn -0.0000 -1.0000 -0.0008
vn 1.0000 -0.0000 -0.0000
vn -1.0000 -0.0000 -0.0000
vt 0.000000 0.000000
s 0
f 40/3/24 42/3/24 43/3/24 41/3/24
f 42/3/25 44/3/25 45/3/25 43/3/25
f 45/3/26 44/3/26 46/3/26 47/3/26
f 47/3/27 46/3/27 48/3/27 49/3/27
f 49/3/28 48/3/28 50/3/28 51/3/28
f 41/3/29 51/3/29 50/3/29 40/3/29
f 40/3/30 50/3/30 48/3/30 46/3/30 44/3/30 42/3/30
f 52/3/24 41/3/24 43/3/24 53/3/24
f 53/3/25 43/3/25 45/3/25 54/3/25
f 45/3/26 47/3/26 55/3/26 54/3/26
f 47/3/27 49/3/27 56/3/27 55/3/27
f 49/3/28 51/3/28 57/3/28 56/3/28
f 41/3/29 52/3/29 57/3/29 51/3/29
f 52/3/31 53/3/31 54/3/31 55/3/31 56/3/31 57/3/31
g InnerHull.001
v 1.062328 0.957087 -2.324775
v 0.000000 0.957087 -2.324775
v 1.062328 1.193890 -2.324775
v 0.000000 1.193890 -2.324775
v 1.062328 0.957087 2.018871
v 0.000000 0.957087 2.018871
v 1.062328 1.122370 1.223614
v 0.000000 1.122370 1.223614
v -1.062328 0.957087 -2.324775
v -1.062328 1.193890 -2.324775
v -1.062328 0.957087 2.018871
v -1.062328 1.122370 1.223614
vn -0.0000 -0.0000 -1.0000
vn -0.0000 -1.0000 -0.0000
vn -0.0000 0.9791 0.2035
vn -0.0000 0.9998 0.0202
vn 1.0000 -0.0000 -0.0000
vn -1.0000 -0.0000 -0.0000
vt 0.000000 0.000000
s 0
f 58/4/32 59/4/32 61/4/32 60/4/32
f 59/4/33 58/4/33 62/4/33 63/4/33
f 63/4/34 62/4/34 64/4/34 65/4/34
f 61/4/35 65/4/35 64/4/35 60/4/35
f 60/4/36 64/4/36 62/4/36 58/4/36
f 66/4/32 67/4/32 61/4/32 59/4/32
f 59/4/33 63/4/33 68/4/33 66/4/33
f 63/4/34 65/4/34 69/4/34 68/4/34
f 61/4/35 67/4/35 69/4/35 65/4/35
f 67/4/37 66/4/37 68/4/37 69/4/37
