# Blender 3.6.4
# www.blender.org
o Upper
v 0.000000 1.190652 1.223302
v 0.000000 1.190652 -0.659999
v 0.000000 1.264724 -2.402299
v 1.061904 1.264724 -2.402299
v 1.060968 1.190652 -0.659999
v 1.059564 1.190652 1.223302
v 1.167992 1.012044 2.041525
v 0.000000 1.012044 2.041525
v 0.773920 1.012044 2.041525
v 0.000000 0.985207 -2.379006
v 1.174672 0.985207 -2.379006
v 1.167992 1.012044 1.227581
v 1.167992 1.012044 -0.657470
v 0.773494 0.985207 -2.379006
v -1.061904 1.264724 -2.402299
v -1.060968 1.190652 -0.659999
v -1.059564 1.190652 1.223302
v -1.167992 1.012044 2.041525
v -0.773920 1.012044 2.041525
v -1.174672 0.985207 -2.379006
v -1.167992 1.012044 1.227581
v -1.167992 1.012044 -0.657470
v -0.773494 0.985207 -2.379006
vn -0.0000 0.9991 0.0425
vn -0.0000 1.0000 -0.0000
vn -0.0000 0.9770 0.2133
vn -0.0000 -0.0830 -0.9965
vn 0.0207 -0.9998 0.0061
vn 0.8548 0.5189 -0.0000
vn 0.9014 0.4329 0.0079
vn 0.8563 0.5165 0.0003
vn -0.0000 -1.0000 0.0061
vn -0.0207 -0.9998 0.0061
vn -0.8548 0.5189 -0.0000
vn -0.9014 0.4329 0.0079
vn -0.8563 0.5165 0.0003
s 0
f 2//1 5//1 4//1 3//1
f 6//2 5//2 2//2 1//2
f 8//3 9//3 7//3 6//3 1//3
f 3//4 4//4 11//4 14//4 10//4
f 7//5 9//5 14//5 11//5 13//5 12//5
f 7//6 12//6 6//6
f 5//7 13//7 11//7 4//7
f 5//8 6//8 12//8 13//8
f 8//9 10//9 14//9 11//9 9//9
f 2//1 3//1 15//1 16//1
f 17//2 1//2 2//2 16//2
f 8//3 1//3 17//3 18//3 19//3
f 3//4 10//4 23//4 20//4 15//4
f 18//10 21//10 22//10 20//10 23//10 19//10
f 18//11 17//11 21//11
f 16//12 15//12 20//12 22//12
f 16//13 22//13 21//13 17//13
f 8//9 19//9 20//9 23//9 10//9
