# Blender 3.6.4
# www.blender.org
o Cube
v 0.000000 1.190652 1.223302
v 0.000000 1.190652 -0.659999
v 0.000000 1.264724 -2.402299
v 1.061904 1.264724 -2.402299
v 1.060968 1.190652 -0.659999
v 1.059564 1.190652 1.223302
v 1.167992 1.012044 2.041525
v 0.000000 1.012044 2.041525
v 0.773920 1.012044 2.041525
v 0.000000 0.827563 2.677147
v 0.773920 0.827563 2.677147
v 0.773920 0.851043 2.685532
v 0.000000 0.851043 2.685532
v 0.000000 0.331141 2.043202
v 0.773920 0.331141 2.043202
v 0.000000 0.985207 -2.379006
v 1.174672 0.985207 -2.379006
v 0.000000 0.728051 -2.376211
v 0.745263 0.728051 -2.376211
v 0.000000 0.627799 -2.376211
v 0.745263 0.627799 -2.376211
v 0.000000 0.328335 -1.859396
v 0.745263 0.328335 -1.859396
v 1.167992 1.012044 1.227581
v 1.167992 1.012044 -0.657470
v 0.773494 0.985207 -2.379006
v -1.061904 1.264724 -2.402299
v -1.060968 1.190652 -0.659999
v -1.059564 1.190652 1.223302
v -1.167992 1.012044 2.041525
v -0.773920 1.012044 2.041525
v -0.773920 0.827563 2.677147
v -0.773920 0.851043 2.685532
v -0.773920 0.331141 2.043202
v -1.174672 0.985207 -2.379006
v -0.745263 0.728051 -2.376211
v -0.745263 0.627799 -2.376211
v -0.745263 0.328335 -1.859396
v -1.167992 1.012044 1.227581
v -1.167992 1.012044 -0.657470
v -0.773494 0.985207 -2.379006
vn -0.0000 0.9991 0.0425
vn -0.0000 1.0000 -0.0000
vn -0.0000 0.9770 0.2133
vn -0.0000 0.9701 0.2425
vn -0.0000 -0.3363 0.9417
vn -0.0000 -0.7873 0.6165
vn -0.0000 -0.0830 -0.9965
vn 0.0207 -0.9998 0.0061
vn -0.0000 -0.0000 -1.0000
vn -0.0000 -0.8652 -0.5014
vn -0.0000 -1.0000 0.0007
vn 0.8548 0.5189 -0.0000
vn 0.9014 0.4329 0.0079
vn 0.8563 0.5165 0.0003
vn 1.0000 0.0020 -0.0057
vn 0.9998 -0.0206 -0.0052
vn 0.9940 -0.1091 0.0006
vn 1.0000 0.0008 -0.0063
vn -0.0000 -0.0109 -0.9999
vn -0.0207 -0.9998 0.0061
vn -0.8548 0.5189 -0.0000
vn -0.9014 0.4329 0.0079
vn -0.8563 0.5165 0.0003
vn -1.0000 0.0020 -0.0057
vn -0.9998 -0.0206 -0.0052
vn -0.9940 -0.1091 0.0006
vn -1.0000 0.0008 -0.0063
s 0
f 2//1 5//1 4//1 3//1
f 6//2 5//2 2//2 1//2
f 8//3 9//3 7//3 6//3 1//3
f 9//4 8//4 13//4 12//4
f 12//5 13//5 10//5 11//5
f 11//6 10//6 14//6 15//6
f 3//7 4//7 17//7 26//7 16//7
f 7//8 9//8 26//8 17//8 25//8 24//8
f 18//9 19//9 21//9 20//9
f 20//10 21//10 23//10 22//10
f 14//11 22//11 23//11 15//11
f 7//12 24//12 6//12
f 5//13 25//13 17//13 4//13
f 5//14 6//14 24//14 25//14
f 11//15 19//15 12//15
f 12//16 19//16 9//16
f 19//17 26//17 9//17
f 15//18 23//18 21//18 19//18 11//18
f 16//19 26//19 19//19 18//19
f 2//1 3//1 27//1 28//1
f 29//2 1//2 2//2 28//2
f 8//3 1//3 29//3 30//3 31//3
f 31//4 33//4 13//4 8//4
f 33//5 32//5 10//5 13//5
f 32//6 34//6 14//6 10//6
f 3//7 16//7 41//7 35//7 27//7
f 30//20 39//20 40//20 35//20 41//20 31//20
f 18//9 20//9 37//9 36//9
f 20//10 22//10 38//10 37//10
f 14//11 34//11 38//11 22//11
f 30//21 29//21 39//21
f 28//22 27//22 35//22 40//22
f 28//23 40//23 39//23 29//23
f 32//24 33//24 36//24
f 33//25 31//25 36//25
f 36//26 31//26 41//26
f 34//27 32//27 36//27 37//27 38//27
f 16//19 18//19 36//19 41//19
