# Blender 4.0.1
# www.blender.org
mtllib turret.mtl
o TurretColl
v 0.414264 1.200961 1.312621
v 0.000000 1.397649 1.434517
v 0.414264 1.397649 1.434517
v 0.000000 1.628791 1.295700
v 0.387201 1.628791 1.295700
v 0.868730 1.201928 1.162689
v 0.826313 1.398692 1.291291
v 0.774608 1.615740 1.096933
v 0.000000 1.200961 1.312621
v 0.870133 1.201601 -0.321781
v 0.870133 1.286838 -1.376751
v 0.000000 1.286838 -1.376751
v 0.833691 1.428573 -1.400243
v 0.000000 1.428573 -1.400243
v 0.775835 1.726721 -1.285329
v 0.000000 1.726721 -1.285329
v 0.775835 1.788540 0.018496
v 0.000000 1.788540 0.018496
v 0.000000 1.201601 -0.321781
v -0.414264 1.200961 1.312621
v -0.414264 1.397649 1.434517
v -0.387201 1.628791 1.295700
v -0.868730 1.201928 1.162689
v -0.826313 1.398692 1.291291
v -0.774608 1.615740 1.096933
v -0.870133 1.201601 -0.321781
v -0.870133 1.286838 -1.376751
v -0.833691 1.428573 -1.400243
v -0.775835 1.726721 -1.285329
v -0.775835 1.788540 0.018496
vn -0.0000 0.5149 0.8573
vn 0.2797 -0.4940 0.8233
vn -0.0000 -0.5268 0.8500
vn -0.0000 -0.1635 -0.9865
vn 0.3221 0.6006 0.7318
vn -0.0000 0.3596 -0.9331
vn -0.0000 0.9923 0.1241
vn 0.1138 0.9810 0.1573
vn -0.0000 0.9989 -0.0474
vn 0.9675 0.2521 0.0204
vn 0.9836 0.1802 0.0047
vn 0.9777 0.2102 0.0009
vn 0.9810 0.1939 -0.0092
vn 0.9622 0.2688 0.0442
vn 0.9898 0.1422 0.0043
vn 0.0018 -1.0000 -0.0009
vn -0.0000 -1.0000 -0.0004
vn -0.0000 -1.0000 0.0002
vn -0.0000 -0.9968 -0.0805
vn -0.2797 -0.4940 0.8233
vn -0.3221 0.6006 0.7318
vn -0.1138 0.9810 0.1573
vn -0.9675 0.2521 0.0204
vn -0.9836 0.1802 0.0047
vn -0.9777 0.2102 0.0009
vn -0.9810 0.1939 -0.0092
vn -0.9622 0.2688 0.0442
vn -0.9898 0.1422 0.0043
vn -0.0018 -1.0000 -0.0009
vt 0.000000 0.000000
s 0
f 4/1/1 2/1/1 3/1/1 5/1/1
f 1/1/2 6/1/2 7/1/2 3/1/2
f 9/1/3 1/1/3 3/1/3 2/1/3
f 11/1/4 12/1/4 14/1/4 13/1/4
f 3/1/5 7/1/5 8/1/5 5/1/5
f 13/1/6 14/1/6 16/1/6 15/1/6
f 5/1/7 18/1/7 4/1/7
f 18/1/7 5/1/7 17/1/7
f 5/1/8 8/1/8 17/1/8
f 16/1/9 18/1/9 17/1/9 15/1/9
f 10/1/10 11/1/10 13/1/10
f 13/1/11 7/1/11 10/1/11
f 7/1/12 6/1/12 10/1/12
f 13/1/13 15/1/13 17/1/13
f 8/1/14 7/1/14 17/1/14
f 7/1/15 13/1/15 17/1/15
f 19/1/16 6/1/16 1/1/16
f 1/1/17 9/1/17 19/1/17
f 19/1/18 10/1/18 6/1/18
f 19/1/19 11/1/19 10/1/19
f 19/1/19 12/1/19 11/1/19
f 4/1/1 22/1/1 21/1/1 2/1/1
f 20/1/20 21/1/20 24/1/20 23/1/20
f 9/1/3 2/1/3 21/1/3 20/1/3
f 27/1/4 28/1/4 14/1/4 12/1/4
f 21/1/21 22/1/21 25/1/21 24/1/21
f 28/1/6 29/1/6 16/1/6 14/1/6
f 22/1/7 4/1/7 18/1/7
f 18/1/7 30/1/7 22/1/7
f 22/1/22 30/1/22 25/1/22
f 16/1/9 29/1/9 30/1/9 18/1/9
f 26/1/23 28/1/23 27/1/23
f 28/1/24 26/1/24 24/1/24
f 24/1/25 26/1/25 23/1/25
f 28/1/26 30/1/26 29/1/26
f 25/1/27 30/1/27 24/1/27
f 24/1/28 30/1/28 28/1/28
f 19/1/29 20/1/29 23/1/29
f 20/1/17 19/1/17 9/1/17
f 19/1/18 23/1/18 26/1/18
f 19/1/19 26/1/19 27/1/19
f 19/1/19 27/1/19 12/1/19
