# Blender 4.0.1
# www.blender.org
o Cube
v 0.000000 0.000000 -0.170000
v -0.065056 0.000000 -0.157060
v -0.120208 0.000000 -0.120208
v -0.157060 0.000000 -0.065056
v -0.170000 0.000000 0.000000
v -0.157060 0.000000 0.065056
v -0.120208 0.000000 0.120208
v -0.065056 0.000000 0.157060
v 0.000000 0.000000 0.170000
v 0.065056 0.000000 0.157060
v 0.120208 0.000000 0.120208
v 0.157060 0.000000 0.065056
v 0.170000 0.000000 0.000000
v 0.157060 0.000000 -0.065056
v 0.120208 0.000000 -0.120208
v 0.065056 0.000000 -0.157060
v 0.000000 1.025560 -0.170000
v -0.065056 1.025560 -0.157060
v -0.120208 1.025560 -0.120208
v -0.157060 1.025560 -0.065056
v -0.170000 1.025560 0.000000
v -0.157060 1.025560 0.065056
v -0.120208 1.025560 0.120208
v -0.065056 1.025560 0.157060
v 0.000000 1.025560 0.170000
v 0.065056 1.025560 0.157060
v 0.120208 1.025560 0.120208
v 0.157060 1.025560 0.065056
v 0.170000 1.025560 0.000000
v 0.157060 1.025560 -0.065056
v 0.120208 1.025560 -0.120208
v 0.065056 1.025560 -0.157060
v 0.000000 1.138425 -0.128783
v -0.049283 1.138425 -0.118980
v -0.091063 1.138425 -0.091063
v -0.118980 1.138425 -0.049283
v -0.128783 1.138425 0.000000
v -0.118980 1.138425 0.049283
v -0.091063 1.138425 0.091063
v -0.049283 1.138425 0.118980
v 0.000000 1.138425 0.128783
v 0.049283 1.138425 0.118980
v 0.091063 1.138425 0.091063
v 0.118980 1.138425 0.049283
v 0.128783 1.138425 0.000000
v 0.118980 1.138425 -0.049283
v 0.091063 1.138425 -0.091063
v 0.049283 1.138425 -0.118980
v 0.000000 1.140555 -0.123690
v -0.047334 1.140555 -0.114275
v -0.087462 1.140555 -0.087462
v -0.114275 1.140555 -0.047334
v -0.123690 1.140555 0.000000
v -0.114275 1.140555 0.047334
v -0.087462 1.140555 0.087462
v -0.047334 1.140555 0.114275
v 0.000000 1.140555 0.123690
v 0.047334 1.140555 0.114275
v 0.087462 1.140555 0.087462
v 0.114275 1.140555 0.047334
v 0.123690 1.140555 0.000000
v 0.114275 1.140555 -0.047334
v 0.087462 1.140555 -0.087462
v 0.047334 1.140555 -0.114275
v 0.000000 1.257945 -0.123690
v -0.047334 1.257945 -0.114275
v -0.087462 1.257945 -0.087462
v -0.114275 1.257945 -0.047334
v -0.123690 1.257945 0.000000
v -0.114275 1.257945 0.047334
v -0.087462 1.257945 0.087462
v -0.047334 1.257945 0.114275
v 0.000000 1.257945 0.123690
v 0.047334 1.257945 0.114275
v 0.087462 1.257945 0.087462
v 0.114275 1.257945 0.047334
v 0.123690 1.257945 0.000000
v 0.114275 1.257945 -0.047334
v 0.087462 1.257945 -0.087462
v 0.047334 1.257945 -0.114275
v 0.000000 1.262737 -0.120257
v -0.046021 1.262737 -0.111103
v -0.085035 1.262737 -0.085035
v -0.111103 1.262737 -0.046021
v -0.120257 1.262737 0.000000
v -0.111103 1.262737 0.046021
v -0.085035 1.262737 0.085035
v -0.046021 1.262737 0.111103
v 0.000000 1.262737 0.120257
v 0.046021 1.262737 0.111103
v 0.085035 1.262737 0.085035
v 0.111103 1.262737 0.046021
v 0.120257 1.262737 0.000000
v 0.111103 1.262737 -0.046021
v 0.085035 1.262737 -0.085035
v 0.046021 1.262737 -0.111103
v 0.000000 1.299205 -0.072043
v -0.027570 1.299205 -0.066559
v -0.050942 1.299205 -0.050942
v -0.066559 1.299205 -0.027570
v -0.072043 1.299205 0.000000
v -0.066559 1.299205 0.027570
v -0.050942 1.299205 0.050942
v -0.027570 1.299205 0.066559
v 0.000000 1.299205 0.072043
v 0.027570 1.299205 0.066559
v 0.050942 1.299205 0.050942
v 0.066559 1.299205 0.027570
v 0.072043 1.299205 0.000000
v 0.066559 1.299205 -0.027570
v 0.050942 1.299205 -0.050942
v 0.027570 1.299205 -0.066559
v -0.046021 1.299205 -0.111103
v 0.000000 1.299205 -0.120257
v -0.085035 1.299205 -0.085035
v -0.111103 1.299205 -0.046021
v -0.120257 1.299205 0.000000
v -0.111103 1.299205 0.046021
v -0.085035 1.299205 0.085035
v -0.046021 1.299205 0.111103
v 0.000000 1.299205 0.120257
v 0.046021 1.299205 0.111103
v 0.085035 1.299205 0.085035
v 0.111103 1.299205 0.046021
v 0.120257 1.299205 0.000000
v 0.111103 1.299205 -0.046021
v 0.085035 1.299205 -0.085035
v 0.046021 1.299205 -0.111103
v 0.000000 1.338763 -0.056982
v -0.021806 1.338763 -0.052645
v -0.040293 1.338763 -0.040293
v -0.052645 1.338763 -0.021806
v -0.056982 1.338763 0.000000
v -0.052645 1.338763 0.021806
v -0.040293 1.338763 0.040293
v -0.021806 1.338763 0.052645
v 0.000000 1.338763 0.056982
v 0.021806 1.338763 0.052645
v 0.040293 1.338763 0.040293
v 0.052645 1.338763 0.021806
v 0.056982 1.338763 0.000000
v 0.052645 1.338763 -0.021806
v 0.040293 1.338763 -0.040293
v 0.021806 1.338763 -0.052645
v 0.000000 1.373262 -0.061265
v -0.023445 1.373262 -0.056602
v -0.043321 1.373262 -0.043321
v -0.056602 1.373262 -0.023445
v -0.061265 1.373262 0.000000
v -0.056602 1.373262 0.023445
v -0.043321 1.373262 0.043321
v -0.023445 1.373262 0.056602
v 0.000000 1.373262 0.061265
v 0.023445 1.373262 0.056602
v 0.043321 1.373262 0.043321
v 0.056602 1.373262 0.023445
v 0.061265 1.373262 0.000000
v 0.056602 1.373262 -0.023445
v 0.043321 1.373262 -0.043321
v 0.023445 1.373262 -0.056602
v 0.000000 1.411900 -0.086703
v -0.033180 1.411900 -0.080103
v -0.061308 1.411900 -0.061308
v -0.080103 1.411900 -0.033180
v -0.086703 1.411900 0.000000
v -0.080103 1.411900 0.033180
v -0.061308 1.411900 0.061308
v -0.033180 1.411900 0.080103
v 0.000000 1.411900 0.086703
v 0.033180 1.411900 0.080103
v 0.061308 1.411900 0.061308
v 0.080103 1.411900 0.033180
v 0.086703 1.411900 0.000000
v 0.080103 1.411900 -0.033180
v 0.061308 1.411900 -0.061308
v 0.033180 1.411900 -0.080103
v 0.000000 1.445018 -0.123821
v -0.047384 1.445018 -0.114396
v -0.087555 1.445018 -0.087555
v -0.114396 1.445018 -0.047384
v -0.123821 1.445018 0.000000
v -0.114396 1.445018 0.047384
v -0.087555 1.445018 0.087555
v -0.047384 1.445018 0.114396
v 0.000000 1.445018 0.123821
v 0.047384 1.445018 0.114396
v 0.087555 1.445018 0.087555
v 0.114396 1.445018 0.047384
v 0.123821 1.445018 0.000000
v 0.114396 1.445018 -0.047384
v 0.087555 1.445018 -0.087555
v 0.047384 1.445018 -0.114396
v 0.000000 1.501320 -0.045052
v -0.017241 1.501320 -0.041623
v -0.031856 1.501320 -0.031856
v -0.041622 1.501320 -0.017241
v -0.045052 1.501320 -0.000000
v -0.041622 1.501320 0.017241
v -0.031856 1.501320 0.031856
v -0.017241 1.501320 0.041623
v 0.000000 1.501320 0.045052
v 0.017241 1.501320 0.041623
v 0.031857 1.501320 0.031856
v 0.041623 1.501320 0.017241
v 0.045052 1.501320 -0.000000
v 0.041623 1.501320 -0.017241
v 0.031857 1.501320 -0.031856
v 0.017241 1.501320 -0.041623
v -0.047384 1.501320 -0.114396
v 0.000000 1.501320 -0.123821
v -0.087555 1.501320 -0.087555
v -0.114396 1.501320 -0.047384
v -0.123821 1.501320 0.000000
v -0.114396 1.501320 0.047384
v -0.087555 1.501320 0.087555
v -0.047384 1.501320 0.114396
v 0.000000 1.501320 0.123821
v 0.047384 1.501320 0.114396
v 0.087555 1.501320 0.087555
v 0.114396 1.501320 0.047384
v 0.123821 1.501320 0.000000
v 0.114396 1.501320 -0.047384
v 0.087555 1.501320 -0.087555
v 0.047384 1.501320 -0.114396
v -0.000000 1.616698 -0.030967
v -0.011850 1.616698 -0.028610
v -0.021897 1.616698 -0.021897
v -0.028610 1.616698 -0.011850
v -0.030967 1.616698 -0.000000
v -0.028610 1.616698 0.011850
v -0.021897 1.616698 0.021897
v -0.011850 1.616698 0.028610
v -0.000000 1.616698 0.030967
v 0.011850 1.616698 0.028610
v 0.021897 1.616698 0.021897
v 0.028610 1.616698 0.011850
v 0.030967 1.616698 -0.000000
v 0.028610 1.616698 -0.011850
v 0.021897 1.616698 -0.021897
v 0.011850 1.616698 -0.028610
v 0.000000 1.793550 -0.027214
v -0.010414 1.793550 -0.025142
v -0.019243 1.793550 -0.019243
v -0.025142 1.793550 -0.010414
v -0.027214 1.793550 -0.000000
v -0.025142 1.793550 0.010414
v -0.019243 1.793550 0.019243
v -0.010414 1.793550 0.025142
v 0.000000 1.793550 0.027214
v 0.010414 1.793550 0.025142
v 0.019243 1.793550 0.019243
v 0.025142 1.793550 0.010414
v 0.027214 1.793550 -0.000000
v 0.025142 1.793550 -0.010414
v 0.019243 1.793550 -0.019243
v 0.010414 1.793550 -0.025142
v -0.000000 1.974859 -0.000000
vn -0.8315 -0.0000 0.5556
vn 0.8315 -0.0000 -0.5556
vn -0.5556 -0.0000 0.8315
vn 0.5556 -0.0000 -0.8315
vn -0.1951 -0.0000 0.9808
vn -0.1951 -0.0000 -0.9808
vn 0.1951 -0.0000 -0.9808
vn 0.1951 -0.0000 0.9808
vn -0.5556 -0.0000 -0.8315
vn 0.5556 -0.0000 0.8315
vn -0.8315 -0.0000 -0.5556
vn 0.8315 -0.0000 0.5556
vn -0.9808 -0.0000 -0.1951
vn 0.9808 -0.0000 0.1951
vn -0.9808 -0.0000 0.1951
vn 0.9808 -0.0000 -0.1951
vn 0.9233 0.3372 0.1837
vn -0.9233 0.3372 0.1837
vn 0.9233 0.3372 -0.1837
vn -0.7828 0.3372 0.5230
vn 0.7828 0.3372 -0.5230
vn -0.5230 0.3372 0.7828
vn 0.5230 0.3372 -0.7828
vn -0.1837 0.3372 0.9233
vn -0.1837 0.3372 -0.9233
vn 0.1837 0.3372 -0.9233
vn 0.1837 0.3372 0.9233
vn -0.5230 0.3372 -0.7828
vn 0.5230 0.3372 0.7828
vn -0.7828 0.3372 -0.5230
vn 0.7828 0.3372 0.5230
vn -0.9233 0.3372 -0.1837
vn 0.2179 0.9199 0.3261
vn -0.3261 0.9199 -0.2179
vn 0.3261 0.9199 0.2179
vn -0.3847 0.9199 -0.0765
vn 0.3847 0.9199 0.0765
vn -0.3847 0.9199 0.0765
vn 0.3847 0.9199 -0.0765
vn -0.3261 0.9199 0.2179
vn 0.3261 0.9199 -0.2179
vn -0.2179 0.9199 0.3261
vn 0.2179 0.9199 -0.3261
vn -0.0765 0.9199 0.3847
vn -0.0765 0.9199 -0.3847
vn 0.0765 0.9199 -0.3847
vn 0.0765 0.9199 0.3847
vn -0.2179 0.9199 -0.3261
vn -0.8025 0.5749 0.1596
vn 0.8025 0.5749 -0.1596
vn -0.6803 0.5749 0.4546
vn 0.6803 0.5749 -0.4546
vn -0.4546 0.5749 0.6803
vn 0.4546 0.5749 -0.6803
vn -0.1596 0.5749 0.8025
vn -0.1596 0.5749 -0.8025
vn 0.1596 0.5749 -0.8025
vn 0.1596 0.5749 0.8025
vn -0.4546 0.5749 -0.6803
vn 0.4546 0.5749 0.6803
vn -0.6803 0.5749 -0.4546
vn 0.6803 0.5749 0.4546
vn -0.8025 0.5749 -0.1596
vn 0.8025 0.5749 0.1596
vn 0.7789 0.3498 -0.5205
vn -0.0000 1.0000 -0.0000
vn -0.9736 -0.1209 -0.1937
vn -0.5205 0.3498 0.7789
vn 0.5205 0.3498 -0.7789
vn -0.1828 0.3498 0.9188
vn -0.1828 0.3498 -0.9188
vn 0.1828 0.3498 -0.9188
vn 0.1828 0.3498 0.9188
vn -0.5205 0.3498 -0.7789
vn 0.5205 0.3498 0.7789
vn -0.7789 0.3498 -0.5205
vn 0.7789 0.3498 0.5205
vn -0.9188 0.3498 -0.1828
vn 0.9188 0.3498 0.1828
vn -0.9188 0.3498 0.1828
vn 0.9188 0.3498 -0.1828
vn -0.7789 0.3498 0.5205
vn 0.1639 -0.5424 0.8239
vn 0.9736 -0.1209 0.1937
vn -0.9736 -0.1209 0.1937
vn 0.9736 -0.1209 -0.1937
vn -0.8254 -0.1209 0.5515
vn 0.8254 -0.1209 -0.5515
vn -0.5515 -0.1209 0.8254
vn 0.5515 -0.1209 -0.8254
vn -0.1937 -0.1209 0.9736
vn -0.1937 -0.1209 -0.9736
vn 0.1937 -0.1209 -0.9736
vn 0.1937 -0.1209 0.9736
vn -0.5515 -0.1209 -0.8254
vn 0.5515 -0.1209 0.8254
vn -0.8254 -0.1209 -0.5515
vn 0.8254 -0.1209 0.5515
vn 0.5595 -0.7397 -0.3739
vn -0.4667 -0.5424 -0.6985
vn 0.4667 -0.5424 0.6985
vn -0.6985 -0.5424 -0.4667
vn 0.6985 -0.5424 0.4667
vn -0.8239 -0.5424 -0.1639
vn 0.8239 -0.5424 0.1639
vn -0.8239 -0.5424 0.1639
vn 0.8239 -0.5424 -0.1639
vn -0.6985 -0.5424 0.4667
vn 0.6985 -0.5424 -0.4667
vn -0.4667 -0.5424 0.6985
vn 0.4667 -0.5424 -0.6985
vn -0.1639 -0.5424 0.8239
vn -0.1639 -0.5424 -0.8239
vn 0.1639 -0.5424 -0.8239
vn -0.3739 -0.7397 0.5595
vn 0.3739 -0.7397 -0.5595
vn -0.1313 -0.7397 0.6600
vn -0.1313 -0.7397 -0.6600
vn 0.1313 -0.7397 -0.6600
vn 0.1313 -0.7397 0.6600
vn -0.3739 -0.7397 -0.5595
vn 0.3739 -0.7397 0.5595
vn -0.5595 -0.7397 -0.3739
vn 0.5595 -0.7397 0.3739
vn -0.6600 -0.7397 -0.1313
vn 0.6600 -0.7397 0.1313
vn -0.6600 -0.7397 0.1313
vn 0.6600 -0.7397 -0.1313
vn -0.5595 -0.7397 0.3739
vn -0.8256 0.1189 0.5516
vn 0.8313 0.0208 0.5555
vn 0.8256 0.1189 -0.5516
vn -0.5516 0.1189 0.8256
vn 0.5516 0.1189 -0.8256
vn -0.1937 0.1189 0.9738
vn -0.1937 0.1189 -0.9738
vn 0.1937 0.1189 -0.9738
vn 0.1937 0.1189 0.9738
vn -0.5516 0.1189 -0.8256
vn 0.5516 0.1189 0.8256
vn -0.8256 0.1189 -0.5516
vn 0.8256 0.1189 0.5516
vn -0.9738 0.1189 -0.1937
vn 0.9738 0.1189 0.1937
vn -0.9738 0.1189 0.1937
vn 0.9738 0.1189 -0.1937
vn 0.1930 0.1456 -0.9703
vn -0.9806 0.0208 -0.1950
vn 0.9806 0.0208 0.1950
vn -0.9806 0.0208 0.1950
vn 0.9806 0.0208 -0.1950
vn -0.8313 0.0208 0.5554
vn 0.8313 0.0208 -0.5555
vn -0.5555 0.0208 0.8313
vn 0.5555 0.0208 -0.8313
vn -0.1950 0.0208 0.9806
vn -0.1950 0.0208 -0.9806
vn 0.1950 0.0208 -0.9806
vn 0.1950 0.0208 0.9806
vn -0.5554 0.0208 -0.8313
vn 0.5554 0.0208 0.8313
vn -0.8313 0.0208 -0.5555
vn 0.1930 0.1456 0.9703
vn -0.5496 0.1456 -0.8226
vn 0.5496 0.1456 0.8226
vn -0.8226 0.1456 -0.5496
vn 0.8226 0.1456 0.5496
vn -0.9703 0.1456 -0.1930
vn 0.9703 0.1456 0.1930
vn -0.9703 0.1456 0.1930
vn 0.9703 0.1456 -0.1930
vn -0.8226 0.1456 0.5496
vn 0.8226 0.1456 -0.5496
vn -0.5496 0.1456 0.8226
vn 0.5496 0.1456 -0.8226
vn -0.1930 0.1456 0.9703
vn -0.1930 0.1456 -0.9703
vn -0.0000 -1.0000 -0.0000
vt 0.000000 0.000000
s 0
f 7/1/1 23/1/1 22/1/1 6/1/1
f 15/1/2 31/1/2 30/1/2 14/1/2
f 8/1/3 24/1/3 23/1/3 7/1/3
f 16/1/4 32/1/4 31/1/4 15/1/4
f 9/1/5 25/1/5 24/1/5 8/1/5
f 2/1/6 18/1/6 17/1/6 1/1/6
f 1/1/7 17/1/7 32/1/7 16/1/7
f 10/1/8 26/1/8 25/1/8 9/1/8
f 3/1/9 19/1/9 18/1/9 2/1/9
f 11/1/10 27/1/10 26/1/10 10/1/10
f 4/1/11 20/1/11 19/1/11 3/1/11
f 12/1/12 28/1/12 27/1/12 11/1/12
f 5/1/13 21/1/13 20/1/13 4/1/13
f 13/1/14 29/1/14 28/1/14 12/1/14
f 6/1/15 22/1/15 21/1/15 5/1/15
f 14/1/16 30/1/16 29/1/16 13/1/16
f 29/1/17 45/1/17 44/1/17 28/1/17
f 22/1/18 38/1/18 37/1/18 21/1/18
f 30/1/19 46/1/19 45/1/19 29/1/19
f 23/1/20 39/1/20 38/1/20 22/1/20
f 31/1/21 47/1/21 46/1/21 30/1/21
f 24/1/22 40/1/22 39/1/22 23/1/22
f 32/1/23 48/1/23 47/1/23 31/1/23
f 25/1/24 41/1/24 40/1/24 24/1/24
f 18/1/25 34/1/25 33/1/25 17/1/25
f 17/1/26 33/1/26 48/1/26 32/1/26
f 26/1/27 42/1/27 41/1/27 25/1/27
f 19/1/28 35/1/28 34/1/28 18/1/28
f 27/1/29 43/1/29 42/1/29 26/1/29
f 20/1/30 36/1/30 35/1/30 19/1/30
f 28/1/31 44/1/31 43/1/31 27/1/31
f 21/1/32 37/1/32 36/1/32 20/1/32
f 43/1/33 59/1/33 58/1/33 42/1/33
f 36/1/34 52/1/34 51/1/34 35/1/34
f 44/1/35 60/1/35 59/1/35 43/1/35
f 37/1/36 53/1/36 52/1/36 36/1/36
f 45/1/37 61/1/37 60/1/37 44/1/37
f 38/1/38 54/1/38 53/1/38 37/1/38
f 46/1/39 62/1/39 61/1/39 45/1/39
f 39/1/40 55/1/40 54/1/40 38/1/40
f 47/1/41 63/1/41 62/1/41 46/1/41
f 40/1/42 56/1/42 55/1/42 39/1/42
f 48/1/43 64/1/43 63/1/43 47/1/43
f 41/1/44 57/1/44 56/1/44 40/1/44
f 34/1/45 50/1/45 49/1/45 33/1/45
f 33/1/46 49/1/46 64/1/46 48/1/46
f 42/1/47 58/1/47 57/1/47 41/1/47
f 35/1/48 51/1/48 50/1/48 34/1/48
f 64/1/4 80/1/4 79/1/4 63/1/4
f 57/1/5 73/1/5 72/1/5 56/1/5
f 50/1/6 66/1/6 65/1/6 49/1/6
f 49/1/7 65/1/7 80/1/7 64/1/7
f 58/1/8 74/1/8 73/1/8 57/1/8
f 51/1/9 67/1/9 66/1/9 50/1/9
f 59/1/10 75/1/10 74/1/10 58/1/10
f 52/1/11 68/1/11 67/1/11 51/1/11
f 60/1/12 76/1/12 75/1/12 59/1/12
f 53/1/13 69/1/13 68/1/13 52/1/13
f 61/1/14 77/1/14 76/1/14 60/1/14
f 54/1/15 70/1/15 69/1/15 53/1/15
f 62/1/16 78/1/16 77/1/16 61/1/16
f 55/1/1 71/1/1 70/1/1 54/1/1
f 63/1/2 79/1/2 78/1/2 62/1/2
f 56/1/3 72/1/3 71/1/3 55/1/3
f 70/1/49 86/1/49 85/1/49 69/1/49
f 78/1/50 94/1/50 93/1/50 77/1/50
f 71/1/51 87/1/51 86/1/51 70/1/51
f 79/1/52 95/1/52 94/1/52 78/1/52
f 72/1/53 88/1/53 87/1/53 71/1/53
f 80/1/54 96/1/54 95/1/54 79/1/54
f 73/1/55 89/1/55 88/1/55 72/1/55
f 66/1/56 82/1/56 81/1/56 65/1/56
f 65/1/57 81/1/57 96/1/57 80/1/57
f 74/1/58 90/1/58 89/1/58 73/1/58
f 67/1/59 83/1/59 82/1/59 66/1/59
f 75/1/60 91/1/60 90/1/60 74/1/60
f 68/1/61 84/1/61 83/1/61 67/1/61
f 76/1/62 92/1/62 91/1/62 75/1/62
f 69/1/63 85/1/63 84/1/63 68/1/63
f 77/1/64 93/1/64 92/1/64 76/1/64
f 91/1/10 123/1/10 122/1/10 90/1/10
f 84/1/11 116/1/11 115/1/11 83/1/11
f 92/1/12 124/1/12 123/1/12 91/1/12
f 85/1/13 117/1/13 116/1/13 84/1/13
f 93/1/14 125/1/14 124/1/14 92/1/14
f 86/1/15 118/1/15 117/1/15 85/1/15
f 94/1/16 126/1/16 125/1/16 93/1/16
f 87/1/1 119/1/1 118/1/1 86/1/1
f 95/1/2 127/1/2 126/1/2 94/1/2
f 88/1/3 120/1/3 119/1/3 87/1/3
f 96/1/4 128/1/4 127/1/4 95/1/4
f 89/1/5 121/1/5 120/1/5 88/1/5
f 82/1/6 113/1/6 114/1/6 81/1/6
f 81/1/7 114/1/7 128/1/7 96/1/7
f 90/1/8 122/1/8 121/1/8 89/1/8
f 83/1/9 115/1/9 113/1/9 82/1/9
f 111/1/65 143/1/65 142/1/65 110/1/65
f 97/1/66 114/1/66 113/1/66 98/1/66
f 98/1/66 113/1/66 115/1/66 99/1/66
f 99/1/66 115/1/66 116/1/66 100/1/66
f 100/1/66 116/1/66 117/1/66 101/1/66
f 101/1/66 117/1/66 118/1/66 102/1/66
f 102/1/66 118/1/66 119/1/66 103/1/66
f 103/1/66 119/1/66 120/1/66 104/1/66
f 104/1/66 120/1/66 121/1/66 105/1/66
f 105/1/66 121/1/66 122/1/66 106/1/66
f 106/1/66 122/1/66 123/1/66 107/1/66
f 107/1/66 123/1/66 124/1/66 108/1/66
f 108/1/66 124/1/66 125/1/66 109/1/66
f 109/1/66 125/1/66 126/1/66 110/1/66
f 110/1/66 126/1/66 127/1/66 111/1/66
f 111/1/66 127/1/66 128/1/66 112/1/66
f 112/1/66 128/1/66 114/1/66 97/1/66
f 133/1/67 149/1/67 148/1/67 132/1/67
f 104/1/68 136/1/68 135/1/68 103/1/68
f 112/1/69 144/1/69 143/1/69 111/1/69
f 105/1/70 137/1/70 136/1/70 104/1/70
f 98/1/71 130/1/71 129/1/71 97/1/71
f 97/1/72 129/1/72 144/1/72 112/1/72
f 106/1/73 138/1/73 137/1/73 105/1/73
f 99/1/74 131/1/74 130/1/74 98/1/74
f 107/1/75 139/1/75 138/1/75 106/1/75
f 100/1/76 132/1/76 131/1/76 99/1/76
f 108/1/77 140/1/77 139/1/77 107/1/77
f 101/1/78 133/1/78 132/1/78 100/1/78
f 109/1/79 141/1/79 140/1/79 108/1/79
f 102/1/80 134/1/80 133/1/80 101/1/80
f 110/1/81 142/1/81 141/1/81 109/1/81
f 103/1/82 135/1/82 134/1/82 102/1/82
f 154/1/83 170/1/83 169/1/83 153/1/83
f 141/1/84 157/1/84 156/1/84 140/1/84
f 134/1/85 150/1/85 149/1/85 133/1/85
f 142/1/86 158/1/86 157/1/86 141/1/86
f 135/1/87 151/1/87 150/1/87 134/1/87
f 143/1/88 159/1/88 158/1/88 142/1/88
f 136/1/89 152/1/89 151/1/89 135/1/89
f 144/1/90 160/1/90 159/1/90 143/1/90
f 137/1/91 153/1/91 152/1/91 136/1/91
f 130/1/92 146/1/92 145/1/92 129/1/92
f 129/1/93 145/1/93 160/1/93 144/1/93
f 138/1/94 154/1/94 153/1/94 137/1/94
f 131/1/95 147/1/95 146/1/95 130/1/95
f 139/1/96 155/1/96 154/1/96 138/1/96
f 132/1/97 148/1/97 147/1/97 131/1/97
f 140/1/98 156/1/98 155/1/98 139/1/98
f 175/1/99 191/1/99 190/1/99 174/1/99
f 147/1/100 163/1/100 162/1/100 146/1/100
f 155/1/101 171/1/101 170/1/101 154/1/101
f 148/1/102 164/1/102 163/1/102 147/1/102
f 156/1/103 172/1/103 171/1/103 155/1/103
f 149/1/104 165/1/104 164/1/104 148/1/104
f 157/1/105 173/1/105 172/1/105 156/1/105
f 150/1/106 166/1/106 165/1/106 149/1/106
f 158/1/107 174/1/107 173/1/107 157/1/107
f 151/1/108 167/1/108 166/1/108 150/1/108
f 159/1/109 175/1/109 174/1/109 158/1/109
f 152/1/110 168/1/110 167/1/110 151/1/110
f 160/1/111 176/1/111 175/1/111 159/1/111
f 153/1/112 169/1/112 168/1/112 152/1/112
f 146/1/113 162/1/113 161/1/113 145/1/113
f 145/1/114 161/1/114 176/1/114 160/1/114
f 181/1/13 213/1/13 212/1/13 180/1/13
f 168/1/115 184/1/115 183/1/115 167/1/115
f 176/1/116 192/1/116 191/1/116 175/1/116
f 169/1/117 185/1/117 184/1/117 168/1/117
f 162/1/118 178/1/118 177/1/118 161/1/118
f 161/1/119 177/1/119 192/1/119 176/1/119
f 170/1/120 186/1/120 185/1/120 169/1/120
f 163/1/121 179/1/121 178/1/121 162/1/121
f 171/1/122 187/1/122 186/1/122 170/1/122
f 164/1/123 180/1/123 179/1/123 163/1/123
f 172/1/124 188/1/124 187/1/124 171/1/124
f 165/1/125 181/1/125 180/1/125 164/1/125
f 173/1/126 189/1/126 188/1/126 172/1/126
f 166/1/127 182/1/127 181/1/127 165/1/127
f 174/1/128 190/1/128 189/1/128 173/1/128
f 167/1/129 183/1/129 182/1/129 166/1/129
f 199/1/130 231/1/130 230/1/130 198/1/130
f 189/1/14 221/1/14 220/1/14 188/1/14
f 182/1/15 214/1/15 213/1/15 181/1/15
f 190/1/16 222/1/16 221/1/16 189/1/16
f 183/1/1 215/1/1 214/1/1 182/1/1
f 191/1/2 223/1/2 222/1/2 190/1/2
f 184/1/3 216/1/3 215/1/3 183/1/3
f 192/1/4 224/1/4 223/1/4 191/1/4
f 185/1/5 217/1/5 216/1/5 184/1/5
f 178/1/6 209/1/6 210/1/6 177/1/6
f 177/1/7 210/1/7 224/1/7 192/1/7
f 186/1/8 218/1/8 217/1/8 185/1/8
f 179/1/9 211/1/9 209/1/9 178/1/9
f 187/1/10 219/1/10 218/1/10 186/1/10
f 180/1/11 212/1/11 211/1/11 179/1/11
f 188/1/12 220/1/12 219/1/12 187/1/12
f 193/1/66 210/1/66 209/1/66 194/1/66
f 194/1/66 209/1/66 211/1/66 195/1/66
f 195/1/66 211/1/66 212/1/66 196/1/66
f 196/1/66 212/1/66 213/1/66 197/1/66
f 197/1/66 213/1/66 214/1/66 198/1/66
f 198/1/66 214/1/66 215/1/66 199/1/66
f 199/1/66 215/1/66 216/1/66 200/1/66
f 200/1/66 216/1/66 217/1/66 201/1/66
f 201/1/66 217/1/66 218/1/66 202/1/66
f 202/1/66 218/1/66 219/1/66 203/1/66
f 203/1/66 219/1/66 220/1/66 204/1/66
f 204/1/66 220/1/66 221/1/66 205/1/66
f 205/1/66 221/1/66 222/1/66 206/1/66
f 206/1/66 222/1/66 223/1/66 207/1/66
f 207/1/66 223/1/66 224/1/66 208/1/66
f 208/1/66 224/1/66 210/1/66 193/1/66
f 236/1/131 252/1/131 251/1/131 235/1/131
f 207/1/132 239/1/132 238/1/132 206/1/132
f 200/1/133 232/1/133 231/1/133 199/1/133
f 208/1/134 240/1/134 239/1/134 207/1/134
f 201/1/135 233/1/135 232/1/135 200/1/135
f 194/1/136 226/1/136 225/1/136 193/1/136
f 193/1/137 225/1/137 240/1/137 208/1/137
f 202/1/138 234/1/138 233/1/138 201/1/138
f 195/1/139 227/1/139 226/1/139 194/1/139
f 203/1/140 235/1/140 234/1/140 202/1/140
f 196/1/141 228/1/141 227/1/141 195/1/141
f 204/1/142 236/1/142 235/1/142 203/1/142
f 197/1/143 229/1/143 228/1/143 196/1/143
f 205/1/144 237/1/144 236/1/144 204/1/144
f 198/1/145 230/1/145 229/1/145 197/1/145
f 206/1/146 238/1/146 237/1/146 205/1/146
f 241/1/147 257/1/147 256/1/147
f 229/1/148 245/1/148 244/1/148 228/1/148
f 237/1/149 253/1/149 252/1/149 236/1/149
f 230/1/150 246/1/150 245/1/150 229/1/150
f 238/1/151 254/1/151 253/1/151 237/1/151
f 231/1/152 247/1/152 246/1/152 230/1/152
f 239/1/153 255/1/153 254/1/153 238/1/153
f 232/1/154 248/1/154 247/1/154 231/1/154
f 240/1/155 256/1/155 255/1/155 239/1/155
f 233/1/156 249/1/156 248/1/156 232/1/156
f 226/1/157 242/1/157 241/1/157 225/1/157
f 225/1/158 241/1/158 256/1/158 240/1/158
f 234/1/159 250/1/159 249/1/159 233/1/159
f 227/1/160 243/1/160 242/1/160 226/1/160
f 235/1/161 251/1/161 250/1/161 234/1/161
f 228/1/162 244/1/162 243/1/162 227/1/162
f 250/1/163 257/1/163 249/1/163
f 243/1/164 257/1/164 242/1/164
f 251/1/165 257/1/165 250/1/165
f 244/1/166 257/1/166 243/1/166
f 252/1/167 257/1/167 251/1/167
f 245/1/168 257/1/168 244/1/168
f 253/1/169 257/1/169 252/1/169
f 246/1/170 257/1/170 245/1/170
f 254/1/171 257/1/171 253/1/171
f 247/1/172 257/1/172 246/1/172
f 255/1/173 257/1/173 254/1/173
f 248/1/174 257/1/174 247/1/174
f 256/1/175 257/1/175 255/1/175
f 249/1/176 257/1/176 248/1/176
f 242/1/177 257/1/177 241/1/177
f 2/1/178 1/1/178 16/1/178 15/1/178 14/1/178 13/1/178 12/1/178 11/1/178 10/1/178 9/1/178 8/1/178 7/1/178 6/1/178 5/1/178 4/1/178 3/1/178
