# Blender 4.0.1
# www.blender.org
mtllib engine.mtl
o Engine
v 0.726512 1.000000 -1.000000
v 0.634874 -0.068635 -0.998830
v 0.726512 1.000000 1.000000
v 0.634874 -0.068635 1.001170
v -0.726512 1.000000 -1.000000
v -0.621162 -0.068635 -0.998830
v -0.726512 1.000000 1.000000
v -0.621162 -0.068635 1.001170
v 0.324002 1.572078 1.000000
v -0.324002 1.572078 1.000000
v 0.324002 1.572078 -1.000000
v -0.324002 1.572078 -1.000000
vn -0.8178 0.5754 -0.0000
vn -0.0000 0.0011 1.0000
vn -0.9952 -0.0981 -0.0000
vn -0.0000 -1.0000 -0.0000
vn 0.9963 -0.0854 -0.0000
vn -0.0000 -0.0011 -1.0000
vn -0.0000 1.0000 -0.0000
vn 0.8178 0.5754 -0.0000
vn -0.0000 -0.0000 -1.0000
vn -0.0000 -0.0000 1.0000
vt 0.000000 0.000000
vt 1.000000 0.000000
vt 1.000000 1.000000
vt 0.000000 1.000000
s 0
usemtl Material
f 5/1/1 7/2/1 10/3/1 12/4/1
f 4/1/2 3/2/2 7/3/2 8/4/2
f 8/1/3 7/2/3 5/3/3 6/4/3
f 6/1/4 2/2/4 4/3/4 8/4/4
f 2/1/5 1/2/5 3/3/5 4/4/5
f 6/1/6 5/2/6 1/3/6 2/4/6
f 11/1/7 12/2/7 10/3/7 9/4/7
f 3/1/8 1/2/8 11/3/8 9/4/8
f 1/1/9 5/2/9 12/3/9 11/4/9
f 7/1/10 3/2/10 9/3/10 10/4/10
